<?xml version="1.0" encoding="UTF-8" standalone="no"?>
<!-- Created with Inkscape (http://www.inkscape.org/) -->

<svg
   xmlns:dc="http://purl.org/dc/elements/1.1/"
   xmlns:cc="http://creativecommons.org/ns#"
   xmlns:rdf="http://www.w3.org/1999/02/22-rdf-syntax-ns#"
   xmlns:svg="http://www.w3.org/2000/svg"
   xmlns="http://www.w3.org/2000/svg"
   xmlns:sodipodi="http://sodipodi.sourceforge.net/DTD/sodipodi-0.dtd"
   xmlns:inkscape="http://www.inkscape.org/namespaces/inkscape"
   width="295.5"
   height="219.26086"
   id="svg2"
   version="1.1"
   inkscape:version="0.48.3.1 r9886"
   sodipodi:docname="graphpusher-sequence.svg">
  <defs
     id="defs4">
    <marker
       inkscape:stockid="Arrow1Mstart"
       orient="auto"
       refY="0"
       refX="0"
       id="Arrow1Mstart"
       style="overflow:visible">
      <path
         id="path4008"
         d="M 0,0 5,-5 -12.5,0 5,5 0,0 z"
         style="fill-rule:evenodd;stroke:#000000;stroke-width:1pt;marker-start:none"
         transform="matrix(0.4,0,0,0.4,4,0)"
         inkscape:connector-curvature="0" />
    </marker>
    <marker
       inkscape:stockid="Arrow1Sstart"
       orient="auto"
       refY="0"
       refX="0"
       id="Arrow1Sstart"
       style="overflow:visible">
      <path
         id="path4014"
         d="M 0,0 5,-5 -12.5,0 5,5 0,0 z"
         style="fill-rule:evenodd;stroke:#000000;stroke-width:1pt;marker-start:none"
         transform="matrix(0.2,0,0,0.2,1.2,0)"
         inkscape:connector-curvature="0" />
    </marker>
    <marker
       inkscape:stockid="Arrow1Mend"
       orient="auto"
       refY="0"
       refX="0"
       id="Arrow1Mend"
       style="overflow:visible">
      <path
         id="path4011"
         d="M 0,0 5,-5 -12.5,0 5,5 0,0 z"
         style="fill-rule:evenodd;stroke:#000000;stroke-width:1pt;marker-start:none"
         transform="matrix(-0.4,0,0,-0.4,-4,0)"
         inkscape:connector-curvature="0" />
    </marker>
    <marker
       inkscape:stockid="Arrow1Lstart"
       orient="auto"
       refY="0"
       refX="0"
       id="Arrow1Lstart"
       style="overflow:visible">
      <path
         id="path4166"
         d="M 0,0 5,-5 -12.5,0 5,5 0,0 z"
         style="fill-rule:evenodd;stroke:#000000;stroke-width:1pt;marker-start:none"
         transform="matrix(0.8,0,0,0.8,10,0)"
         inkscape:connector-curvature="0" />
    </marker>
    <marker
       inkscape:stockid="Arrow1Lend"
       orient="auto"
       refY="0"
       refX="0"
       id="Arrow1Lend"
       style="overflow:visible">
      <path
         id="path4169"
         d="M 0,0 5,-5 -12.5,0 5,5 0,0 z"
         style="fill-rule:evenodd;stroke:#000000;stroke-width:1pt;marker-start:none"
         transform="matrix(-0.8,0,0,-0.8,-10,0)"
         inkscape:connector-curvature="0" />
    </marker>
  </defs>
  <sodipodi:namedview
     id="base"
     pagecolor="#ffffff"
     bordercolor="#666666"
     borderopacity="1.0"
     inkscape:pageopacity="0.0"
     inkscape:pageshadow="2"
     inkscape:zoom="2.8284271"
     inkscape:cx="188.19401"
     inkscape:cy="85.516737"
     inkscape:document-units="px"
     inkscape:current-layer="layer1"
     showgrid="true"
     showguides="true"
     inkscape:guide-bbox="true"
     inkscape:window-width="1615"
     inkscape:window-height="1026"
     inkscape:window-x="65"
     inkscape:window-y="24"
     inkscape:window-maximized="1"
     fit-margin-top="10"
     fit-margin-left="10"
     fit-margin-right="10"
     fit-margin-bottom="10">
    <sodipodi:guide
       orientation="0,1"
       position="185.64286,165.51282"
       id="guide3007" />
    <sodipodi:guide
       orientation="1,0"
       position="138.5,185.51282"
       id="guide3019" />
    <sodipodi:guide
       orientation="0,1"
       position="353.5,165.51282"
       id="guide3021" />
    <sodipodi:guide
       orientation="0,1"
       position="73.5,35.512817"
       id="guide3023" />
    <sodipodi:guide
       orientation="1,0"
       position="128.5,200.51282"
       id="guide3025" />
    <inkscape:grid
       type="xygrid"
       id="grid3027"
       empspacing="5"
       visible="true"
       enabled="true"
       snapvisiblegridlinesonly="true"
       originx="3.5px"
       originy="-834.48718px" />
    <sodipodi:guide
       orientation="1,0"
       position="178.5,170.51282"
       id="guide3029" />
    <sodipodi:guide
       orientation="1,0"
       position="253.5,165.51282"
       id="guide3031" />
    <sodipodi:guide
       orientation="1,0"
       position="188.5,175.51282"
       id="guide3035" />
    <sodipodi:guide
       orientation="1,0"
       position="263.5,175.51282"
       id="guide3037" />
    <sodipodi:guide
       orientation="1,0"
       position="33.5,205.51282"
       id="guide3039" />
    <sodipodi:guide
       orientation="0,1"
       position="58.5,95.512817"
       id="guide3175" />
  </sodipodi:namedview>
  <metadata
     id="metadata7">
    <rdf:RDF>
      <cc:Work
         rdf:about="">
        <dc:format>image/svg+xml</dc:format>
        <dc:type
           rdf:resource="http://purl.org/dc/dcmitype/StillImage" />
        <dc:title />
      </cc:Work>
    </rdf:RDF>
  </metadata>
  <g
     inkscape:label="Layer 1"
     inkscape:groupmode="layer"
     id="layer1"
     transform="translate(3.5,1.3858624)">
    <text
       xml:space="preserve"
       style="font-size:14px;font-style:normal;font-weight:normal;line-height:125%;letter-spacing:0px;word-spacing:0px;fill:#000000;fill-opacity:1;stroke:none;font-family:Sans"
       x="7"
       y="37.362186"
       id="text2999"
       sodipodi:linespacing="125%"><tspan
         sodipodi:role="line"
         id="tspan3001"
         x="7"
         y="37.362186"
         style="font-size:12px">GraphPusher</tspan></text>
    <text
       xml:space="preserve"
       style="font-size:40px;font-style:normal;font-weight:normal;line-height:125%;letter-spacing:0px;word-spacing:0px;fill:#000000;fill-opacity:1;stroke:none;font-family:Sans"
       x="117"
       y="37.362186"
       id="text3003"
       sodipodi:linespacing="125%"><tspan
         sodipodi:role="line"
         id="tspan3005"
         x="117"
         y="37.362186"
         style="font-size:12px">VoID</tspan></text>
    <text
       xml:space="preserve"
       style="font-size:14px;font-style:normal;font-weight:normal;line-height:125%;letter-spacing:0px;word-spacing:0px;fill:#000000;fill-opacity:1;stroke:none;font-family:Sans"
       x="167"
       y="17.362185"
       id="text3009"
       sodipodi:linespacing="125%"><tspan
         sodipodi:role="line"
         x="167"
         y="17.362185"
         id="tspan3013"
         style="font-size:12px">Dataset</tspan><tspan
         sodipodi:role="line"
         x="167"
         y="32.362183"
         id="tspan3173"
         style="font-size:12px">Dumps</tspan></text>
    <text
       xml:space="preserve"
       style="font-size:14px;font-style:normal;font-weight:normal;line-height:125%;letter-spacing:0px;word-spacing:0px;fill:#000000;fill-opacity:1;stroke:none;font-family:Sans"
       x="242"
       y="17.362185"
       id="text3015"
       sodipodi:linespacing="125%"><tspan
         sodipodi:role="line"
         id="tspan3017"
         x="242"
         y="17.362185"
         style="font-size:12px">RDF</tspan><tspan
         sodipodi:role="line"
         x="242"
         y="32.362183"
         id="tspan3873"
         style="font-size:12px">Store</tspan></text>
    <path
       sodipodi:type="arc"
       style="fill:none"
       id="path3041"
       sodipodi:cx="10"
       sodipodi:cy="82.362183"
       sodipodi:rx="10"
       sodipodi:ry="10"
       d="m 20,82.362183 c 0,5.522847 -4.477153,10 -10,10 -5.5228475,0 -10,-4.477153 -10,-10 0,-5.522848 4.4771525,-10 10,-10 5.522847,0 10,4.477152 10,10 z"
       transform="translate(0,-20)" />
    <path
       sodipodi:type="arc"
       style="fill:none"
       id="path3043"
       sodipodi:cx="35"
       sodipodi:cy="102.36218"
       sodipodi:rx="35"
       sodipodi:ry="30"
       d="m 70,102.36218 c 0,16.56855 -15.670034,30 -35,30 -19.329966,0 -35,-13.43145 -35,-30 0,-16.56854 15.670034,-29.999997 35,-29.999997 19.329966,0 35,13.431457 35,29.999997 z"
       transform="translate(0,-20)" />
    <path
       sodipodi:type="arc"
       style="fill:none"
       id="path3045"
       sodipodi:cx="50"
       sodipodi:cy="117.36218"
       sodipodi:rx="20"
       sodipodi:ry="15"
       d="m 70,117.36218 c 0,8.28427 -8.954305,15 -20,15 -11.045695,0 -20,-6.71573 -20,-15 0,-8.28427 8.954305,-15 20,-15 11.045695,0 20,6.71573 20,15 z"
       transform="translate(-28,-9.9999974)" />
    <text
       xml:space="preserve"
       style="font-size:11px;font-style:normal;font-variant:normal;font-weight:normal;font-stretch:normal;line-height:125%;letter-spacing:0px;word-spacing:0px;fill:#000000;fill-opacity:1;stroke:none;font-family:Monospace;-inkscape-font-specification:Monospace"
       x="14"
       y="76.362183"
       id="text3053"
       sodipodi:linespacing="125%"><tspan
         sodipodi:role="line"
         id="tspan3055"
         x="14"
         y="76.362183"
         style="font-size:11px;font-style:normal;font-variant:normal;font-weight:normal;font-stretch:normal;font-family:Monospace;-inkscape-font-specification:Monospace">1</tspan></text>
    <path
       style="font-size:medium;font-style:normal;font-variant:normal;font-weight:normal;font-stretch:normal;text-indent:0;text-align:start;text-decoration:none;line-height:normal;letter-spacing:normal;word-spacing:normal;text-transform:none;direction:ltr;block-progression:tb;writing-mode:lr-tb;text-anchor:start;baseline-shift:baseline;color:#000000;fill-opacity:1;stroke:none;stroke-width:1;marker:none;visibility:visible;display:inline;overflow:visible;enable-background:accumulate;font-family:Sans;-inkscape-font-specification:Sans"
       d="m 17.177419,62.118598 c -5.794978,0 -10.5,4.590126 -10.5,10.243591 0,5.653465 4.705022,10.243592 10.5,10.243592 5.794978,0 10.5,-4.590127 10.5,-10.243592 0,-5.653465 -4.705022,-10.243591 -10.5,-10.243591 z m 0,0.660877 c 5.428873,0 9.822581,4.286413 9.822581,9.582714 0,5.296301 -4.393708,9.582715 -9.822581,9.582715 -5.428873,0 -9.822581,-4.286414 -9.822581,-9.582715 0,-5.296301 4.393708,-9.582714 9.822581,-9.582714 z"
       id="path3057"
       inkscape:connector-curvature="0" />
    <g
       inkscape:groupmode="layer"
       id="layer2"
       inkscape:label="Steps" />
    <path
       transform="translate(0,40)"
       sodipodi:type="arc"
       style="fill:none"
       id="path3041-2"
       sodipodi:cx="10"
       sodipodi:cy="82.362183"
       sodipodi:rx="10"
       sodipodi:ry="10"
       d="m 20,82.362183 c 0,5.522847 -4.477153,10 -10,10 -5.5228475,0 -10,-4.477153 -10,-10 0,-5.522848 4.4771525,-10 10,-10 5.522847,0 10,4.477152 10,10 z" />
    <text
       xml:space="preserve"
       style="font-size:14px;font-style:normal;font-weight:normal;line-height:125%;letter-spacing:0px;word-spacing:0px;fill:#000000;fill-opacity:1;stroke:none;font-family:Sans"
       x="14"
       y="136.36218"
       id="text3053-2"
       sodipodi:linespacing="125%"><tspan
         sodipodi:role="line"
         id="tspan3055-3"
         x="14"
         y="136.36218"
         style="font-size:12px;font-style:normal;font-variant:normal;font-weight:normal;font-stretch:normal;font-family:Monospace;-inkscape-font-specification:Monospace">2</tspan></text>
    <path
       style="font-size:medium;font-style:normal;font-variant:normal;font-weight:normal;font-stretch:normal;text-indent:0;text-align:start;text-decoration:none;line-height:normal;letter-spacing:normal;word-spacing:normal;text-transform:none;direction:ltr;block-progression:tb;writing-mode:lr-tb;text-anchor:start;baseline-shift:baseline;color:#000000;fill-opacity:1;stroke:none;stroke-width:1;marker:none;visibility:visible;display:inline;overflow:visible;enable-background:accumulate;font-family:Sans;-inkscape-font-specification:Sans"
       d="m 17.177419,122.11859 c -5.794978,0 -10.5,4.59013 -10.5,10.24359 0,5.65347 4.705022,10.24359 10.5,10.24359 5.794978,0 10.5,-4.59012 10.5,-10.24359 0,-5.65346 -4.705022,-10.24359 -10.5,-10.24359 z m 0,0.66088 c 5.428873,0 9.822581,4.28641 9.822581,9.58271 0,5.2963 -4.393708,9.58272 -9.822581,9.58272 -5.428873,0 -9.822581,-4.28642 -9.822581,-9.58272 0,-5.2963 4.393708,-9.58271 9.822581,-9.58271 z"
       id="path3057-1"
       inkscape:connector-curvature="0" />
    <path
       transform="translate(0,100)"
       sodipodi:type="arc"
       style="fill:none"
       id="path3041-6"
       sodipodi:cx="10"
       sodipodi:cy="82.362183"
       sodipodi:rx="10"
       sodipodi:ry="10"
       d="m 20,82.362183 c 0,5.522847 -4.477153,10 -10,10 -5.5228475,0 -10,-4.477153 -10,-10 0,-5.522848 4.4771525,-10 10,-10 5.522847,0 10,4.477152 10,10 z" />
    <text
       xml:space="preserve"
       style="font-size:14px;font-style:normal;font-weight:normal;line-height:125%;letter-spacing:0px;word-spacing:0px;fill:#000000;fill-opacity:1;stroke:none;font-family:Sans"
       x="13"
       y="197.36218"
       id="text3053-7"
       sodipodi:linespacing="125%"><tspan
         sodipodi:role="line"
         id="tspan3055-0"
         x="13"
         y="197.36218"
         style="font-size:12px">3</tspan></text>
    <path
       style="font-size:medium;font-style:normal;font-variant:normal;font-weight:normal;font-stretch:normal;text-indent:0;text-align:start;text-decoration:none;line-height:normal;letter-spacing:normal;word-spacing:normal;text-transform:none;direction:ltr;block-progression:tb;writing-mode:lr-tb;text-anchor:start;baseline-shift:baseline;color:#000000;fill-opacity:1;stroke:none;stroke-width:1;marker:none;visibility:visible;display:inline;overflow:visible;enable-background:accumulate;font-family:Sans;-inkscape-font-specification:Sans"
       d="m 17,182.7013 c -5.794978,0 -10.5,4.59013 -10.5,10.24359 0,5.65347 4.705022,10.24359 10.5,10.24359 5.794978,0 10.5,-4.59012 10.5,-10.24359 0,-5.65346 -4.705022,-10.24359 -10.5,-10.24359 z m 0,0.66088 c 5.428873,0 9.822581,4.28641 9.822581,9.58271 0,5.2963 -4.393708,9.58272 -9.822581,9.58272 -5.428873,0 -9.822581,-4.28642 -9.822581,-9.58272 0,-5.2963 4.393708,-9.58271 9.822581,-9.58271 z"
       id="path3057-4"
       inkscape:connector-curvature="0" />
    <path
       style="font-size:medium;font-style:normal;font-variant:normal;font-weight:normal;font-stretch:normal;text-indent:0;text-align:start;text-decoration:none;line-height:normal;letter-spacing:normal;word-spacing:normal;text-transform:none;direction:ltr;block-progression:tb;writing-mode:lr-tb;text-anchor:start;baseline-shift:baseline;color:#000000;fill-opacity:1;stroke:none;stroke-width:1;marker:none;visibility:visible;display:inline;overflow:visible;enable-background:accumulate;font-family:Sans;-inkscape-font-specification:Sans"
       d="m 31.5,56.875006 0,0.5 0,149.999994 0,0.5 0.5,0 30,0 0.5,0 0,-0.5 0,-149.999994 0,-0.5 -0.5,0 -30,0 -0.5,0 z m 1,1 29,0 0,148.999994 -29,0 0,-148.999994 z"
       id="rect3104"
       inkscape:connector-curvature="0" />
    <rect
       style="fill:none;stroke-width:3;stroke-miterlimit:4;stroke-dasharray:none"
       id="rect4161"
       width="60"
       height="5"
       x="62"
       y="72.362183" />
    <path
       style="fill:none;stroke:#000000;stroke-width:0.96609181px;stroke-linecap:butt;stroke-linejoin:miter;stroke-opacity:1;marker-start:url(#Arrow1Mstart);marker-end:url(#Arrow1Lend)"
       d="m 64,72.362189 56,0"
       id="path7391"
       inkscape:connector-type="polyline"
       inkscape:connector-curvature="0" />
    <path
       style="fill:none;stroke:#000000;stroke-width:0.98319203px;stroke-linecap:butt;stroke-linejoin:miter;stroke-opacity:1;marker-start:url(#Arrow1Mstart);marker-end:url(#Arrow1Lend)"
       d="m 64,132.36218 116,0"
       id="path7393"
       inkscape:connector-type="polyline"
       inkscape:connector-curvature="0" />
    <path
       style="fill:none;stroke:#000000;stroke-width:0.95863563px;stroke-linecap:butt;stroke-linejoin:miter;stroke-opacity:1;marker-start:none;marker-end:url(#Arrow1Lend)"
       d="m 62,192.36218 183,0"
       id="path7399"
       inkscape:connector-type="polyline"
       inkscape:connector-curvature="0" />
    <rect
       style="fill:none;stroke:none"
       id="rect3032"
       width="15"
       height="25"
       x="122"
       y="57.36219" />
    <rect
       style="fill:none;stroke:none"
       id="rect3839"
       width="15"
       height="15"
       x="122"
       y="92.362183"
       ry="0" />
    <rect
       style="fill:none;stroke:#000000;stroke-width:1;stroke-linecap:round;stroke-linejoin:bevel;stroke-miterlimit:0;stroke-opacity:1;stroke-dasharray:none"
       id="rect3841"
       width="15"
       height="30"
       x="122"
       y="57.36219" />
    <rect
       style="fill:none;stroke:none"
       id="rect3032-3"
       width="15"
       height="25"
       x="187"
       y="117.36218" />
    <rect
       style="fill:none;stroke:#000000;stroke-width:1;stroke-linecap:round;stroke-linejoin:bevel;stroke-miterlimit:0;stroke-opacity:1;stroke-dasharray:none"
       id="rect3841-8"
       width="15"
       height="30"
       x="182"
       y="117.36218" />
    <rect
       style="fill:none;stroke:none"
       id="rect3032-9"
       width="15"
       height="25"
       x="267"
       y="172.36218" />
    <rect
       style="fill:none;stroke:#000000;stroke-width:1;stroke-linecap:round;stroke-linejoin:bevel;stroke-miterlimit:0;stroke-opacity:1;stroke-dasharray:none"
       id="rect3841-1"
       width="15"
       height="30"
       x="247"
       y="177.36218" />
    <text
       xml:space="preserve"
       style="font-size:10px;font-style:normal;font-variant:normal;font-weight:normal;font-stretch:normal;line-height:125%;letter-spacing:0px;word-spacing:0px;fill:#000000;fill-opacity:1;stroke:none;font-family:Monospace;-inkscape-font-specification:Monospace"
       x="72"
       y="67.36219"
       id="text5389"
       sodipodi:linespacing="125%"><tspan
         sodipodi:role="line"
         id="tspan5391"
         x="72"
         y="67.36219">GET</tspan></text>
    <text
       xml:space="preserve"
       style="font-size:10px;font-style:normal;font-variant:normal;font-weight:normal;font-stretch:normal;line-height:125%;letter-spacing:0px;word-spacing:0px;fill:#000000;fill-opacity:1;stroke:none;font-family:Monospace;-inkscape-font-specification:Monospace"
       x="72"
       y="127.36218"
       id="text5389-3"
       sodipodi:linespacing="125%"><tspan
         sodipodi:role="line"
         id="tspan5391-7"
         x="72"
         y="127.36218">GET</tspan></text>
    <text
       xml:space="preserve"
       style="font-size:10px;font-style:normal;font-variant:normal;font-weight:normal;font-stretch:normal;line-height:125%;letter-spacing:0px;word-spacing:0px;fill:#000000;fill-opacity:1;stroke:none;font-family:Monospace;-inkscape-font-specification:Monospace"
       x="72"
       y="187.36218"
       id="text5389-9"
       sodipodi:linespacing="125%"><tspan
         sodipodi:role="line"
         id="tspan5391-8"
         x="72"
         y="187.36218">POST</tspan></text>
  </g>
</svg>
