<?xml version="1.0" encoding="UTF-8" standalone="no"?>
<!-- Created with Inkscape (http://www.inkscape.org/) -->

<svg
   xmlns:dc="http://purl.org/dc/elements/1.1/"
   xmlns:cc="http://creativecommons.org/ns#"
   xmlns:rdf="http://www.w3.org/1999/02/22-rdf-syntax-ns#"
   xmlns:svg="http://www.w3.org/2000/svg"
   xmlns="http://www.w3.org/2000/svg"
   xmlns:sodipodi="http://sodipodi.sourceforge.net/DTD/sodipodi-0.dtd"
   xmlns:inkscape="http://www.inkscape.org/namespaces/inkscape"
   width="640.00024"
   height="483.405"
   id="svg2"
   version="1.1"
   inkscape:version="0.48.3.1 r9886"
   sodipodi:docname="graphpusher-sequence.svg">
  <defs
     id="defs4">
    <marker
       inkscape:stockid="Arrow1Mstart"
       orient="auto"
       refY="0"
       refX="0"
       id="Arrow1Mstart"
       style="overflow:visible">
      <path
         id="path4008"
         d="M 0,0 5,-5 -12.5,0 5,5 0,0 z"
         style="fill-rule:evenodd;stroke:#000000;stroke-width:1pt;marker-start:none"
         transform="matrix(0.4,0,0,0.4,4,0)"
         inkscape:connector-curvature="0" />
    </marker>
    <marker
       inkscape:stockid="Arrow1Sstart"
       orient="auto"
       refY="0"
       refX="0"
       id="Arrow1Sstart"
       style="overflow:visible">
      <path
         id="path4014"
         d="M 0,0 5,-5 -12.5,0 5,5 0,0 z"
         style="fill-rule:evenodd;stroke:#000000;stroke-width:1pt;marker-start:none"
         transform="matrix(0.2,0,0,0.2,1.2,0)"
         inkscape:connector-curvature="0" />
    </marker>
    <marker
       inkscape:stockid="Arrow1Mend"
       orient="auto"
       refY="0"
       refX="0"
       id="Arrow1Mend"
       style="overflow:visible">
      <path
         id="path4011"
         d="M 0,0 5,-5 -12.5,0 5,5 0,0 z"
         style="fill-rule:evenodd;stroke:#000000;stroke-width:1pt;marker-start:none"
         transform="matrix(-0.4,0,0,-0.4,-4,0)"
         inkscape:connector-curvature="0" />
    </marker>
    <marker
       inkscape:stockid="Arrow1Lstart"
       orient="auto"
       refY="0"
       refX="0"
       id="Arrow1Lstart"
       style="overflow:visible">
      <path
         id="path4166"
         d="M 0,0 5,-5 -12.5,0 5,5 0,0 z"
         style="fill-rule:evenodd;stroke:#000000;stroke-width:1pt;marker-start:none"
         transform="matrix(0.8,0,0,0.8,10,0)"
         inkscape:connector-curvature="0" />
    </marker>
    <marker
       inkscape:stockid="Arrow1Lend"
       orient="auto"
       refY="0"
       refX="0"
       id="Arrow1Lend"
       style="overflow:visible">
      <path
         id="path4169"
         d="M 0,0 5,-5 -12.5,0 5,5 0,0 z"
         style="fill-rule:evenodd;stroke:#000000;stroke-width:1pt;marker-start:none"
         transform="matrix(-0.8,0,0,-0.8,-10,0)"
         inkscape:connector-curvature="0" />
    </marker>
  </defs>
  <sodipodi:namedview
     id="base"
     pagecolor="#ffffff"
     bordercolor="#666666"
     borderopacity="1.0"
     inkscape:pageopacity="0.0"
     inkscape:pageshadow="2"
     inkscape:zoom="2.8284271"
     inkscape:cx="306.20642"
     inkscape:cy="217.58881"
     inkscape:document-units="px"
     inkscape:current-layer="layer1"
     showgrid="true"
     showguides="true"
     inkscape:guide-bbox="true"
     inkscape:window-width="1615"
     inkscape:window-height="1026"
     inkscape:window-x="65"
     inkscape:window-y="24"
     inkscape:window-maximized="1"
     fit-margin-top="10"
     fit-margin-left="10"
     fit-margin-right="10"
     fit-margin-bottom="10">
    <sodipodi:guide
       orientation="0,1"
       position="362.34513,297.58489"
       id="guide3007" />
    <sodipodi:guide
       orientation="1,0"
       position="315.20227,317.58489"
       id="guide3019" />
    <sodipodi:guide
       orientation="0,1"
       position="530.20227,297.58489"
       id="guide3021" />
    <sodipodi:guide
       orientation="0,1"
       position="250.20227,167.58489"
       id="guide3023" />
    <sodipodi:guide
       orientation="1,0"
       position="305.20227,332.58489"
       id="guide3025" />
    <inkscape:grid
       type="xygrid"
       id="grid3027"
       empspacing="5"
       visible="true"
       enabled="true"
       snapvisiblegridlinesonly="true"
       originx="180.20227px"
       originy="-702.41511px" />
    <sodipodi:guide
       orientation="1,0"
       position="355.20227,302.58489"
       id="guide3029" />
    <sodipodi:guide
       orientation="1,0"
       position="430.20227,297.58489"
       id="guide3031" />
    <sodipodi:guide
       orientation="1,0"
       position="365.20227,307.58489"
       id="guide3035" />
    <sodipodi:guide
       orientation="1,0"
       position="440.20227,307.58489"
       id="guide3037" />
    <sodipodi:guide
       orientation="1,0"
       position="210.20227,337.58489"
       id="guide3039" />
    <sodipodi:guide
       orientation="0,1"
       position="235.20227,227.58489"
       id="guide3175" />
  </sodipodi:namedview>
  <metadata
     id="metadata7">
    <rdf:RDF>
      <cc:Work
         rdf:about="">
        <dc:format>image/svg+xml</dc:format>
        <dc:type
           rdf:resource="http://purl.org/dc/dcmitype/StillImage" />
        <dc:title />
      </cc:Work>
    </rdf:RDF>
  </metadata>
  <g
     inkscape:label="Layer 1"
     inkscape:groupmode="layer"
     id="layer1"
     transform="translate(180.20227,133.45793)">
    <text
       xml:space="preserve"
       style="font-size:32.55867767px;font-style:normal;font-weight:normal;line-height:125%;letter-spacing:0px;word-spacing:0px;fill:#000000;fill-opacity:1;stroke:none;font-family:Sans"
       x="-169.03946"
       y="-56.600903"
       id="text2999"
       sodipodi:linespacing="125%"><tspan
         sodipodi:role="line"
         id="tspan3001"
         x="-169.03946"
         y="-56.600903"
         style="font-size:27.90743637px">GraphPusher</tspan></text>
    <text
       xml:space="preserve"
       style="font-size:93.0247879px;font-style:normal;font-weight:normal;line-height:125%;letter-spacing:0px;word-spacing:0px;fill:#000000;fill-opacity:1;stroke:none;font-family:Sans"
       x="86.778717"
       y="-56.600903"
       id="text3003"
       sodipodi:linespacing="125%"><tspan
         sodipodi:role="line"
         id="tspan3005"
         x="86.778717"
         y="-56.600903"
         style="font-size:27.90743637px">VoID</tspan></text>
    <text
       xml:space="preserve"
       style="font-size:32.55867767px;font-style:normal;font-weight:normal;line-height:125%;letter-spacing:0px;word-spacing:0px;fill:#000000;fill-opacity:1;stroke:none;font-family:Sans"
       x="203.05971"
       y="-103.1133"
       id="text3009"
       sodipodi:linespacing="125%"><tspan
         sodipodi:role="line"
         x="203.05971"
         y="-103.1133"
         id="tspan3013"
         style="font-size:27.90743637px">Dataset</tspan><tspan
         sodipodi:role="line"
         x="203.05971"
         y="-68.229004"
         id="tspan3173"
         style="font-size:27.90743637px">Dumps</tspan></text>
    <text
       xml:space="preserve"
       style="font-size:32.55867767px;font-style:normal;font-weight:normal;line-height:125%;letter-spacing:0px;word-spacing:0px;fill:#000000;fill-opacity:1;stroke:none;font-family:Sans"
       x="377.4812"
       y="-103.1133"
       id="text3015"
       sodipodi:linespacing="125%"><tspan
         sodipodi:role="line"
         id="tspan3017"
         x="377.4812"
         y="-103.1133"
         style="font-size:27.90743637px">RDF</tspan><tspan
         sodipodi:role="line"
         x="377.4812"
         y="-68.229004"
         id="tspan3873"
         style="font-size:27.90743637px">Store</tspan></text>
    <path
       sodipodi:type="arc"
       style="fill:none"
       id="path3041"
       sodipodi:cx="10"
       sodipodi:cy="82.362183"
       sodipodi:rx="10"
       sodipodi:ry="10"
       d="m 20,82.362183 c 0,5.522847 -4.477153,10 -10,10 -5.5228475,0 -10,-4.477153 -10,-10 0,-5.522848 4.4771525,-10 10,-10 5.522847,0 10,4.477152 10,10 z"
       transform="translate(0,-20)" />
    <path
       sodipodi:type="arc"
       style="fill:none"
       id="path3043"
       sodipodi:cx="35"
       sodipodi:cy="102.36218"
       sodipodi:rx="35"
       sodipodi:ry="30"
       d="m 70,102.36218 c 0,16.56855 -15.670034,30 -35,30 -19.329966,0 -35,-13.43145 -35,-30 0,-16.56854 15.670034,-29.999997 35,-29.999997 19.329966,0 35,13.431457 35,29.999997 z"
       transform="translate(0,-20)" />
    <path
       sodipodi:type="arc"
       style="fill:none"
       id="path3045"
       sodipodi:cx="50"
       sodipodi:cy="117.36218"
       sodipodi:rx="20"
       sodipodi:ry="15"
       d="m 70,117.36218 c 0,8.28427 -8.954305,15 -20,15 -11.045695,0 -20,-6.71573 -20,-15 0,-8.28427 8.954305,-15 20,-15 11.045695,0 20,6.71573 20,15 z"
       transform="translate(-28,-9.9999974)" />
    <text
       xml:space="preserve"
       style="font-size:25.58181763px;font-style:normal;font-variant:normal;font-weight:normal;font-stretch:normal;line-height:125%;letter-spacing:0px;word-spacing:0px;fill:#000000;fill-opacity:1;stroke:none;font-family:Monospace;-inkscape-font-specification:Monospace"
       x="-152.76012"
       y="34.098263"
       id="text3053"
       sodipodi:linespacing="125%"><tspan
         sodipodi:role="line"
         id="tspan3055"
         x="-152.76012"
         y="34.098263"
         style="font-size:25.58181763px;font-style:normal;font-variant:normal;font-weight:normal;font-stretch:normal;font-family:Monospace;-inkscape-font-specification:Monospace">1</tspan></text>
    <path
       style="font-size:medium;font-style:normal;font-variant:normal;font-weight:normal;font-stretch:normal;text-indent:0;text-align:start;text-decoration:none;line-height:normal;letter-spacing:normal;word-spacing:normal;text-transform:none;direction:ltr;block-progression:tb;writing-mode:lr-tb;text-anchor:start;baseline-shift:baseline;color:#000000;fill-opacity:1;stroke:none;stroke-width:1;marker:none;visibility:visible;display:inline;overflow:visible;enable-background:accumulate;font-family:Sans;-inkscape-font-specification:Sans"
       d="m -145.37065,0.97309937 c -13.47692,0 -24.41901,10.67488763 -24.41901,23.82269763 0,13.14781 10.94209,23.8227 24.41901,23.8227 13.47692,0 24.41901,-10.67489 24.41901,-23.8227 0,-13.14781 -10.94209,-23.82269763 -24.41901,-23.82269763 z m 0,1.53694863 c 12.62549,0 22.84359,9.968567 22.84359,22.285749 0,12.317182 -10.2181,22.285751 -22.84359,22.285751 -12.62549,0 -22.84359,-9.968569 -22.84359,-22.285751 0,-12.317182 10.2181,-22.285749 22.84359,-22.285749 z"
       id="path3057"
       inkscape:connector-curvature="0" />
    <g
       inkscape:groupmode="layer"
       id="layer2"
       inkscape:label="Steps" />
    <path
       transform="translate(0,40)"
       sodipodi:type="arc"
       style="fill:none"
       id="path3041-2"
       sodipodi:cx="10"
       sodipodi:cy="82.362183"
       sodipodi:rx="10"
       sodipodi:ry="10"
       d="m 20,82.362183 c 0,5.522847 -4.477153,10 -10,10 -5.5228475,0 -10,-4.477153 -10,-10 0,-5.522848 4.4771525,-10 10,-10 5.522847,0 10,4.477152 10,10 z" />
    <text
       xml:space="preserve"
       style="font-size:32.55867767px;font-style:normal;font-weight:normal;line-height:125%;letter-spacing:0px;word-spacing:0px;fill:#000000;fill-opacity:1;stroke:none;font-family:Sans"
       x="-152.76012"
       y="173.63545"
       id="text3053-2"
       sodipodi:linespacing="125%"><tspan
         sodipodi:role="line"
         id="tspan3055-3"
         x="-152.76012"
         y="173.63545"
         style="font-size:27.90743637px;font-style:normal;font-variant:normal;font-weight:normal;font-stretch:normal;font-family:Monospace;-inkscape-font-specification:Monospace">2</tspan></text>
    <path
       style="font-size:medium;font-style:normal;font-variant:normal;font-weight:normal;font-stretch:normal;text-indent:0;text-align:start;text-decoration:none;line-height:normal;letter-spacing:normal;word-spacing:normal;text-transform:none;direction:ltr;block-progression:tb;writing-mode:lr-tb;text-anchor:start;baseline-shift:baseline;color:#000000;fill-opacity:1;stroke:none;stroke-width:1;marker:none;visibility:visible;display:inline;overflow:visible;enable-background:accumulate;font-family:Sans;-inkscape-font-specification:Sans"
       d="m -145.37065,140.51027 c -13.47692,0 -24.41901,10.67489 -24.41901,23.82269 0,13.14782 10.94209,23.8227 24.41901,23.8227 13.47692,0 24.41901,-10.67488 24.41901,-23.8227 0,-13.1478 -10.94209,-23.82269 -24.41901,-23.82269 z m 0,1.53695 c 12.62549,0 22.84359,9.96856 22.84359,22.28574 0,12.31718 -10.2181,22.28577 -22.84359,22.28577 -12.62549,0 -22.84359,-9.96859 -22.84359,-22.28577 0,-12.31718 10.2181,-22.28574 22.84359,-22.28574 z"
       id="path3057-1"
       inkscape:connector-curvature="0" />
    <path
       transform="translate(0,100)"
       sodipodi:type="arc"
       style="fill:none"
       id="path3041-6"
       sodipodi:cx="10"
       sodipodi:cy="82.362183"
       sodipodi:rx="10"
       sodipodi:ry="10"
       d="m 20,82.362183 c 0,5.522847 -4.477153,10 -10,10 -5.5228475,0 -10,-4.477153 -10,-10 0,-5.522848 4.4771525,-10 10,-10 5.522847,0 10,4.477152 10,10 z" />
    <text
       xml:space="preserve"
       style="font-size:32.55867767px;font-style:normal;font-weight:normal;line-height:125%;letter-spacing:0px;word-spacing:0px;fill:#000000;fill-opacity:1;stroke:none;font-family:Sans"
       x="-155.08574"
       y="315.49826"
       id="text3053-7"
       sodipodi:linespacing="125%"><tspan
         sodipodi:role="line"
         id="tspan3055-0"
         x="-155.08574"
         y="315.49826"
         style="font-size:27.90743637px">3</tspan></text>
    <path
       style="font-size:medium;font-style:normal;font-variant:normal;font-weight:normal;font-stretch:normal;text-indent:0;text-align:start;text-decoration:none;line-height:normal;letter-spacing:normal;word-spacing:normal;text-transform:none;direction:ltr;block-progression:tb;writing-mode:lr-tb;text-anchor:start;baseline-shift:baseline;color:#000000;fill-opacity:1;stroke:none;stroke-width:1;marker:none;visibility:visible;display:inline;overflow:visible;enable-background:accumulate;font-family:Sans;-inkscape-font-specification:Sans"
       d="m -145.78326,281.40261 c -13.47691,0 -24.41901,10.6749 -24.41901,23.8227 0,13.14782 10.9421,23.8227 24.41901,23.8227 13.47692,0 24.41901,-10.67488 24.41901,-23.8227 0,-13.1478 -10.94209,-23.8227 -24.41901,-23.8227 z m 0,1.53696 c 12.6255,0 22.84359,9.96856 22.84359,22.28574 0,12.31718 -10.21809,22.28576 -22.84359,22.28576 -12.62549,0 -22.84359,-9.96858 -22.84359,-22.28576 0,-12.31718 10.2181,-22.28574 22.84359,-22.28574 z"
       id="path3057-4"
       inkscape:connector-curvature="0" />
    <path
       style="font-size:medium;font-style:normal;font-variant:normal;font-weight:normal;font-stretch:normal;text-indent:0;text-align:start;text-decoration:none;line-height:normal;letter-spacing:normal;word-spacing:normal;text-transform:none;direction:ltr;block-progression:tb;writing-mode:lr-tb;text-anchor:start;baseline-shift:baseline;color:#000000;fill-opacity:1;stroke:none;stroke-width:1;marker:none;visibility:visible;display:inline;overflow:visible;enable-background:accumulate;font-family:Sans;-inkscape-font-specification:Sans"
       d="m -112.06177,-11.221502 0,1.16281 0,348.842952 0,1.16281 1.16281,0 69.76859,0 1.16281,0 0,-1.16281 0,-348.842952 0,-1.16281 -1.16281,0 -69.76859,0 -1.16281,0 z m 2.32562,2.3256199 67.44297,0 0,346.5173321 -67.44297,0 0,-346.5173321 z"
       id="rect3104"
       inkscape:connector-curvature="0" />
    <rect
       style="fill:none;stroke-width:3;stroke-miterlimit:4;stroke-dasharray:none"
       id="rect4161"
       width="139.53719"
       height="11.628098"
       x="-41.130371"
       y="24.795782" />
    <path
       style="fill:none;stroke:#000000;stroke-width:2.24676228px;stroke-linecap:butt;stroke-linejoin:miter;stroke-opacity:1;marker-start:url(#Arrow1Mstart);marker-end:url(#Arrow1Lend)"
       d="m -36.47913,24.795797 130.234707,0"
       id="path7391"
       inkscape:connector-type="polyline"
       inkscape:connector-curvature="0" />
    <path
       style="fill:none;stroke:#000000;stroke-width:2.28653073px;stroke-linecap:butt;stroke-linejoin:miter;stroke-opacity:1;marker-start:url(#Arrow1Mstart);marker-end:url(#Arrow1Lend)"
       d="m -36.47913,164.33296 269.77189,0"
       id="path7393"
       inkscape:connector-type="polyline"
       inkscape:connector-curvature="0" />
    <path
       style="fill:none;stroke:#000000;stroke-width:2.22942185px;stroke-linecap:butt;stroke-linejoin:miter;stroke-opacity:1;marker-start:none;marker-end:url(#Arrow1Lend)"
       d="m -41.13037,303.87015 425.58842,0"
       id="path7399"
       inkscape:connector-type="polyline"
       inkscape:connector-curvature="0" />
    <rect
       style="fill:none;stroke:none"
       id="rect3032"
       width="34.884296"
       height="58.140495"
       x="98.406815"
       y="-10.088496" />
    <rect
       style="fill:none;stroke:none"
       id="rect3839"
       width="34.884296"
       height="34.884296"
       x="98.406815"
       y="71.308174"
       ry="0" />
    <rect
       style="fill:none;stroke:#000000;stroke-width:2.3256197;stroke-linecap:round;stroke-linejoin:bevel;stroke-miterlimit:0;stroke-opacity:1;stroke-dasharray:none"
       id="rect3841"
       width="34.884296"
       height="69.768593"
       x="98.406815"
       y="-10.088496" />
    <rect
       style="fill:none;stroke:none"
       id="rect3032-3"
       width="34.884296"
       height="58.140495"
       x="249.5721"
       y="129.44867" />
    <rect
       style="fill:none;stroke:#000000;stroke-width:2.3256197;stroke-linecap:round;stroke-linejoin:bevel;stroke-miterlimit:0;stroke-opacity:1;stroke-dasharray:none"
       id="rect3841-8"
       width="34.884296"
       height="69.768593"
       x="237.944"
       y="129.44867" />
    <rect
       style="fill:none;stroke:none"
       id="rect3032-9"
       width="15"
       height="25"
       x="267"
       y="172.36218" />
    <rect
       style="fill:none;stroke:#000000;stroke-width:2.3256197;stroke-linecap:round;stroke-linejoin:bevel;stroke-miterlimit:0;stroke-opacity:1;stroke-dasharray:none"
       id="rect3841-1"
       width="34.884296"
       height="69.768593"
       x="389.10928"
       y="268.98587" />
    <text
       xml:space="preserve"
       style="font-size:23.25619698px;font-style:normal;font-variant:normal;font-weight:normal;font-stretch:normal;line-height:125%;letter-spacing:0px;word-spacing:0px;fill:#000000;fill-opacity:1;stroke:none;font-family:Monospace;-inkscape-font-specification:Monospace"
       x="-17.874172"
       y="13.167701"
       id="text5389"
       sodipodi:linespacing="125%"><tspan
         sodipodi:role="line"
         id="tspan5391"
         x="-17.874172"
         y="13.167701">GET</tspan></text>
    <text
       xml:space="preserve"
       style="font-size:23.25619698px;font-style:normal;font-variant:normal;font-weight:normal;font-stretch:normal;line-height:125%;letter-spacing:0px;word-spacing:0px;fill:#000000;fill-opacity:1;stroke:none;font-family:Monospace;-inkscape-font-specification:Monospace"
       x="-17.874172"
       y="152.70486"
       id="text5389-3"
       sodipodi:linespacing="125%"><tspan
         sodipodi:role="line"
         id="tspan5391-7"
         x="-17.874172"
         y="152.70486">GET</tspan></text>
    <text
       xml:space="preserve"
       style="font-size:23.25619698px;font-style:normal;font-variant:normal;font-weight:normal;font-stretch:normal;line-height:125%;letter-spacing:0px;word-spacing:0px;fill:#000000;fill-opacity:1;stroke:none;font-family:Monospace;-inkscape-font-specification:Monospace"
       x="-17.874172"
       y="292.24207"
       id="text5389-9"
       sodipodi:linespacing="125%"><tspan
         sodipodi:role="line"
         id="tspan5391-8"
         x="-17.874172"
         y="292.24207">POST</tspan></text>
  </g>
</svg>
